#!OML:ASF X:\für Bonn\!DataBase\2005_08_12_Daniel\c3d\Daniel.ASF
:FULLY-SPECIFIED
:DEGREES
241
root 0.324075 14.7713 -16.7577 377.473 25.2827 14.5293
lowerback 89.2597 -8.64588 11.3757
upperback 6.00648 3.13438 -1.84383
thorax -11.0565 2.05985 -7.52857
lowerneck 0.689279 -9.91483 -0.581826
upperneck 5.59021 -13.2495 6.14072
head 2.15371 -6.40469 1.78491
rclavicle -6.04305e-014 -7.99114e-014
rhumerus 243.647 -166.706 -263.798
rradius 3.33289
rwrist 52.4409
rhand -42.4865 -0.325291
rfingers 7.12502
rthumb -15.3638 -29.7345
lclavicle -6.04305e-014 -7.99114e-014
lhumerus -24.7026 -15.8926 96.6937
lradius 54.9925
lwrist 12.9675
lhand -7.94442 -9.08211
lfingers 7.12502
lthumb 17.9623 20.1084
rfemur -62.8795 -13.413 1.09956
rtibia 85.9328
rfoot -32.0321 -7.51379
rtoes -18.3629
lfemur -67.3017 -5.85643 -32.0531
ltibia 74.5471
lfoot -14.8019 -28.4248
ltoes -1.14952
242
root 0.318593 14.7686 -16.7555 377.521 25.3126 14.6483
lowerback 89.3752 -8.64148 11.3664
upperback 5.96898 3.15568 -1.8548
thorax -11.0802 2.07006 -7.54615
lowerneck 0.388727 -9.97352 -0.513505
upperneck 5.64772 -13.3387 6.08875
head 2.21914 -6.44315 1.73774
rclavicle 5.725e-014 -2.22639e-014
rhumerus 243.621 -166.5 -263.519
rradius 3.15728
rwrist 52.7479
rhand -43.1749 -0.752447
rfingers 7.12502
rthumb -16.0268 -30.1096
lclavicle 5.725e-014 -2.22639e-014
lhumerus -24.6768 -15.9275 96.7541
lradius 55.1276
lwrist 13.0764
lhand -7.98655 -9.04894
lfingers 7.12502
lthumb 17.9218 20.1453
rfemur -62.8738 -13.4545 0.983431
rtibia 85.9938
rfoot -32.0852 -7.44482
rtoes -18.2945
lfemur -67.2829 -5.80861 -32.1861
ltibia 74.5268
lfoot -14.742 -28.5076
ltoes -1.08742
243
root 0.312891 14.7669 -16.7536 377.577 25.3548 14.7556
lowerback 89.4817 -8.64186 11.343
upperback 5.92869 3.16056 -1.85534
thorax -11.1128 2.07142 -7.53972
lowerneck 0.125113 -10.0043 -0.54618
upperneck 5.66991 -13.3915 6.10139
head 2.2784 -6.46652 1.73059
rclavicle 4.13472e-014 -3.57812e-014
rhumerus 243.553 -166.34 -263.241
rradius 3.02646
rwrist 52.9866
rhand -43.853 -1.01304
rfingers 7.12502
rthumb -16.6797 -30.3164
lclavicle 4.13472e-014 -3.57812e-014
lhumerus -24.6498 -15.9348 96.7974
lradius 55.2363
lwrist 13.1131
lhand -7.97067 -9.01001
lfingers 7.12502
lthumb 17.9371 20.1828
rfemur -62.8709 -13.5168 0.898845
rtibia 86.0319
rfoot -32.1146 -7.41504
rtoes -18.2649
lfemur -67.2676 -5.77584 -32.3042
ltibia 74.4957
lfoot -14.7245 -28.5959
ltoes -1.12657
244
root 0.308568 14.7656 -16.7516 377.616 25.3823 14.8606
lowerback 89.576 -8.65752 11.336
upperback 5.90821 3.15545 -1.88698
thorax -11.1206 2.07581 -7.57355
lowerneck -0.141551 -10.0501 -0.507221
upperneck 5.69161 -13.4653 6.12564
head 2.33449 -6.4983 1.71482
rclavicle 0 1.07344e-014
rhumerus 243.527 -166.139 -262.99
rradius 2.82047
rwrist 53.2485
rhand -44.4216 -1.07893
rfingers 7.12502
rthumb -17.227 -30.3353
lclavicle 0 1.07344e-014
lhumerus -24.5687 -16.04 96.8205
lradius 55.3122
lwrist 13.1912
lhand -7.98722 -8.94746
lfingers 7.12502
lthumb 17.9211 20.2468
rfemur -62.8565 -13.5645 0.793683
rtibia 86.0578
rfoot -32.1376 -7.34379
rtoes -18.2016
lfemur -67.2328 -5.74069 -32.4274
ltibia 74.4543
lfoot -14.712 -28.6477
ltoes -1.18722
245
root 0.304894 14.767 -16.7494 377.658 25.4238 14.9456
lowerback 89.666 -8.67632 11.3377
upperback 5.86612 3.1578 -1.90185
thorax -11.1547 2.07688 -7.59271
lowerneck -0.346239 -10.0963 -0.509869
upperneck 5.70058 -13.5356 6.13607
head 2.37746 -6.53061 1.70489
rclavicle 1.43125e-013 2.22639e-014
rhumerus 243.44 -165.962 -262.712
rradius 2.64146
rwrist 53.4901
rhand -44.8944 -0.937833
rfingers 7.12502
rthumb -17.682 -30.1539
lclavicle 1.43125e-013 2.22639e-014
lhumerus -24.522 -16.1086 96.8801
lradius 55.3701
lwrist 13.2252
lhand -7.98061 -8.96225
lfingers 7.12502
lthumb 17.9275 20.2315
rfemur -62.8243 -13.6309 0.719833
rtibia 86.0539
rfoot -32.1569 -7.27262
rtoes -18.1432
lfemur -67.1852 -5.73441 -32.5115
ltibia 74.3846
lfoot -14.6614 -28.7001
ltoes -1.17778
246
root 0.30161 14.7713 -16.7471 377.689 25.4374 15.0269
lowerback 89.7735 -8.67833 11.315
upperback 5.81874 3.15185 -1.93338
thorax -11.1957 2.07601 -7.62199
lowerneck -0.587727 -10.1284 -0.510063
upperneck 5.74878 -13.5911 6.17105
head 2.44154 -6.55308 1.69977
rclavicle -2.54444e-014 -1.39149e-014
rhumerus 243.352 -165.809 -262.469
rradius 2.44606
rwrist 53.784
rhand -45.194 -0.715503
rfingers 7.12502
rthumb -17.9703 -29.9053
lclavicle -2.54444e-014 -1.39149e-014
lhumerus -24.4676 -16.2223 96.904
lradius 55.4218
lwrist 13.3394
lhand -7.93452 -8.93629
lfingers 7.12502
lthumb 17.9718 20.2534
rfemur -62.7759 -13.6642 0.648115
rtibia 86.0196
rfoot -32.1542 -7.24862
rtoes -18.2036
lfemur -67.1096 -5.69796 -32.6082
ltibia 74.2984
lfoot -14.637 -28.73
ltoes -1.2064
